<?xml version="1.0" encoding="UTF-8"?>
<!-- Generator: visioncortex VTracer 0.6.4 -->
<svg version="1.1" xmlns="http://www.w3.org/2000/svg" width="512" height="512">
<path d="M0 0 C0.85 0.17 1.71 0.34 2.59 0.52 C36.55 7.46 69.02 21.88 95 45 C96.29 46.07 97.58 47.13 98.88 48.19 C109.76 57.64 118.4 70.48 125.12 83.12 C125.5 83.84 125.88 84.55 126.27 85.28 C128.1 88.83 129.48 91.99 130 96 C136.63 90.69 143.01 85.22 149.26 79.46 C151.9 77.09 154.61 74.85 157.38 72.62 C161.6 69.22 165.6 65.65 169.56 61.94 C189.6 43.28 189.6 43.28 205.55 43.39 C214.55 43.8 221.78 47.26 228 53.81 C229.04 55.18 230.05 56.57 231 58 C231.65 58.95 231.65 58.95 232.31 59.91 C236.76 67.9 236.5 78.68 234.07 87.31 C230.77 94.65 225.54 100.15 220.01 105.85 C217.35 108.59 214.94 111.45 212.56 114.44 C208.92 118.91 205.24 123.35 201.44 127.69 C200.66 128.63 200.66 128.63 199.87 129.58 C196.12 133.78 196.12 133.78 192.89 134.42 C190 134.47 187.6 134.3 185 133 C184.66 133.8 184.66 133.8 184.31 134.62 C182.57 137.79 180.36 140.27 178 143 C178.33 143.66 178.66 144.32 179 145 C179.57 148.52 179.6 150.99 177.75 154.11 C173.91 159.12 169.57 163.74 165.31 168.41 C162.25 171.84 159.38 175.42 156.53 179.03 C154 182 154 182 151.24 184.56 C142.53 192.81 141.07 199.76 140.12 211.44 C139.87 213.9 139.6 216.36 139.33 218.81 C139.15 220.47 138.98 222.12 138.81 223.78 C138.26 229.07 137.52 234.28 136.56 239.52 C136.38 240.5 136.38 240.5 136.2 241.51 C135.63 244.57 135.04 247.63 134.43 250.69 C133.02 258.26 132.01 265.54 135.23 272.77 C135.73 273.44 136.23 274.12 136.75 274.81 C137.28 275.54 137.82 276.27 138.37 277.02 C140.43 279.53 142.67 281.74 145 284 C145 284.66 145 285.32 145 286 C145.57 286.24 146.14 286.49 146.73 286.74 C149.4 288.23 151.14 289.98 153.25 292.19 C155.96 294.96 158.66 297.63 161.62 300.12 C182.14 317.89 199.47 338.71 201.88 366.81 C203.68 398.35 191.51 427.58 171.44 451.31 C160.95 462.95 147.5 472.23 134 480 C132.9 480.65 131.79 481.29 130.66 481.96 C123.04 486.29 115.13 489.75 107 493 C105.53 493.6 105.53 493.6 104.03 494.21 C98.81 496.24 94.62 497.64 89 497 C86.56 495.62 86.56 495.62 85 494 C85 493.34 85 492.68 85 492 C80.38 492.99 75.76 493.98 71 495 C71 496.65 71 498.3 71 500 C67.62 504.93 62.34 505.32 56.86 506.44 C27.42 511.87 -6.62 511.69 -36 506 C-36.92 505.83 -37.85 505.66 -38.8 505.48 C-84 496.92 -125.95 478.68 -162 450 C-162.84 449.34 -162.84 449.34 -163.69 448.66 C-172.07 441.96 -179.71 434.49 -187.31 426.94 C-188.69 425.57 -188.69 425.57 -190.1 424.18 C-206.65 407.55 -220.26 388.25 -232 368 C-232.42 367.29 -232.83 366.58 -233.26 365.85 C-254.22 330.09 -268.64 289.95 -275 249 C-275.19 247.82 -275.37 246.64 -275.56 245.43 C-277.16 234.14 -277.4 222.95 -277.38 211.56 C-277.37 210.59 -277.37 209.62 -277.37 208.63 C-277.33 193.4 -276.53 178.87 -273 164 C-272.79 163.06 -272.57 162.12 -272.35 161.16 C-264.32 126.73 -264.32 126.73 -256 120 C-254.27 119.78 -254.27 119.78 -252.5 119.56 C-249.01 119.35 -249.01 119.35 -247.25 117.25 C-246.84 116.51 -246.43 115.77 -246 115 C-245.42 114.17 -244.84 113.35 -244.25 112.5 C-242.78 110.13 -242.78 110.13 -243.25 107.81 C-243.78 106.52 -244.37 105.25 -245 104 C-245.69 98.51 -243.78 95.46 -240.56 91.25 C-240.11 90.64 -239.66 90.03 -239.19 89.4 C-235.73 84.78 -232 80.44 -228.06 76.21 C-226.24 74.26 -224.52 72.25 -222.81 70.19 C-204.78 49.63 -180.67 33.41 -156.01 21.94 C-154.65 21.31 -153.31 20.67 -151.96 20.02 C-131.65 10.23 -110.11 4.12 -88 0 C-87.2 -0.16 -86.4 -0.33 -85.57 -0.5 C-58.78 -5.88 -26.72 -5.67 0 0 Z " fill="#FEE8C7" transform="translate(277,3)"/>
<path d="M0 0 C0.85 0.17 1.71 0.34 2.59 0.52 C36.55 7.46 69.02 21.88 95 45 C96.29 46.07 97.58 47.13 98.88 48.19 C109.76 57.64 118.4 70.48 125.12 83.12 C125.5 83.84 125.88 84.55 126.27 85.28 C128.1 88.83 129.48 91.99 130 96 C136.63 90.69 143.01 85.22 149.26 79.46 C151.9 77.09 154.61 74.85 157.38 72.62 C161.6 69.22 165.6 65.65 169.56 61.94 C189.6 43.28 189.6 43.28 205.55 43.39 C214.55 43.8 221.78 47.26 228 53.81 C229.04 55.18 230.05 56.57 231 58 C231.65 58.95 231.65 58.95 232.31 59.91 C236.76 67.9 236.5 78.68 234.07 87.31 C230.77 94.65 225.54 100.15 220.01 105.85 C217.35 108.59 214.94 111.45 212.56 114.44 C208.92 118.91 205.24 123.35 201.44 127.69 C200.66 128.63 200.66 128.63 199.87 129.58 C196.12 133.78 196.12 133.78 192.89 134.42 C190 134.47 187.6 134.3 185 133 C184.66 133.8 184.66 133.8 184.31 134.62 C182.57 137.79 180.36 140.27 178 143 C178.33 143.66 178.66 144.32 179 145 C179.57 148.52 179.6 150.99 177.75 154.11 C173.91 159.12 169.57 163.74 165.31 168.41 C162.25 171.84 159.38 175.42 156.53 179.03 C154 182 154 182 151.24 184.56 C142.53 192.81 141.07 199.76 140.12 211.44 C139.87 213.9 139.6 216.36 139.33 218.81 C139.15 220.47 138.98 222.12 138.81 223.78 C138.26 229.07 137.52 234.28 136.56 239.52 C136.38 240.5 136.38 240.5 136.2 241.51 C135.63 244.57 135.04 247.63 134.43 250.69 C133.02 258.26 132.01 265.54 135.23 272.77 C135.73 273.44 136.23 274.12 136.75 274.81 C137.28 275.54 137.82 276.27 138.37 277.02 C140.43 279.53 142.67 281.74 145 284 C145 284.66 145 285.32 145 286 C145.57 286.24 146.14 286.49 146.73 286.74 C149.4 288.23 151.14 289.98 153.25 292.19 C155.96 294.96 158.66 297.63 161.62 300.12 C182.14 317.89 199.47 338.71 201.88 366.81 C203.68 398.35 191.51 427.58 171.44 451.31 C160.95 462.95 147.5 472.23 134 480 C132.9 480.65 131.79 481.29 130.66 481.96 C123.04 486.29 115.13 489.75 107 493 C105.53 493.6 105.53 493.6 104.03 494.21 C98.82 496.23 94.6 497.7 89 497 C85.94 495 85.94 495 84 492 C83.95 489.01 84.48 486.58 86 484 C89.31 481.81 92.62 480.26 96.32 478.87 C119.18 470.13 138.08 459.85 156 443 C156.61 442.45 157.23 441.9 157.86 441.34 C170.99 429.11 178.13 411.93 183 395 C183.23 394.23 183.45 393.46 183.68 392.67 C188.69 372.38 183.71 353.52 173.26 336.1 C165.21 324.2 153.82 314.33 143 305 C117.95 283.24 117.95 283.24 116.75 266.58 C116.67 256 118.04 246.07 120 235.69 C120.43 233.33 120.86 230.97 121.28 228.61 C121.55 227.16 121.81 225.71 122.09 224.27 C122.61 221.46 123 218.86 123 216 C122.24 216.89 121.48 217.79 120.69 218.71 C115.96 224.26 111.22 229.8 106.31 235.19 C103.3 238.5 100.43 241.89 97.62 245.38 C93.94 249.93 90.07 254.24 86.08 258.52 C83.11 261.73 80.3 265.03 77.56 268.44 C73.67 273.27 69.56 277.84 65.3 282.36 C62.55 285.28 60.01 288.25 57.56 291.44 C54.81 294.58 52.1 296.1 48.3 297.79 C47.14 298.31 45.99 298.83 44.8 299.36 C38.12 302.26 31.41 305.08 24.69 307.88 C23.25 308.47 21.82 309.07 20.38 309.67 C16.92 311.12 13.46 312.56 10 314 C10.49 315.1 10.97 316.19 11.47 317.32 C13.8 322.94 14.04 328.4 12.34 334.27 C9.57 340.51 4.37 345.5 -2 348 C-4.91 348.23 -4.91 348.23 -8.06 348.19 C-9.11 348.18 -10.15 348.17 -11.22 348.17 C-14 348 -14 348 -17 347 C-17.12 347.73 -17.24 348.45 -17.37 349.2 C-19.42 358.28 -24.97 366.26 -32.38 371.77 C-48.76 382.09 -68.59 386.94 -87.02 392.15 C-89.59 392.88 -92.14 393.63 -94.7 394.39 C-108.6 398.45 -108.6 398.45 -115 397 C-117.69 394.94 -117.69 394.94 -119 392 C-118.32 384.93 -116.36 378.12 -114.58 371.27 C-114 369 -113.43 366.72 -112.87 364.44 C-100.25 314 -100.25 314 -82 301 C-72.8 296 -72.8 296 -68 296 C-68.33 295.01 -68.66 294.02 -69 293 C-69.72 286.06 -69.72 280.43 -65.5 274.68 C-61.68 270.39 -57.37 266.4 -51.48 265.7 C-50.58 265.7 -49.68 265.69 -48.75 265.69 C-47.86 265.67 -46.97 265.65 -46.05 265.64 C-43.3 265.96 -41.36 266.53 -38.81 267.52 C-38.09 267.8 -37.38 268.07 -36.64 268.36 C-35.83 268.68 -35.83 268.68 -35 269 C-34.52 267.8 -34.04 266.6 -33.55 265.36 C-31.76 260.88 -29.94 256.4 -28.12 251.92 C-27.34 249.99 -26.56 248.06 -25.79 246.12 C-24.68 243.32 -23.54 240.54 -22.4 237.75 C-22.07 236.89 -21.73 236.04 -21.38 235.16 C-17.69 226.25 -11.59 220.17 -4.25 214.12 C-3.02 213.09 -1.79 212.06 -0.56 211.02 C0.04 210.51 0.65 210.01 1.27 209.48 C3.8 207.32 6.24 205.07 8.69 202.81 C12.18 199.6 15.74 196.54 19.44 193.56 C23.97 189.9 28.26 186.05 32.52 182.09 C36.61 178.31 40.88 174.8 45.22 171.31 C48.24 168.8 51.12 166.18 54 163.5 C58.59 159.23 63.33 155.24 68.22 151.31 C71.24 148.8 74.12 146.18 77 143.5 C81.59 139.23 86.33 135.24 91.22 131.31 C94.76 128.37 98.12 125.25 101.49 122.11 C106.47 117.5 111.69 113.23 117 109 C115.88 102.6 114.01 97.31 110.88 91.62 C110.48 90.89 110.08 90.15 109.66 89.39 C104.01 79.18 96.99 70.48 89 62 C88.21 61.11 88.21 61.11 87.4 60.21 C62.93 33.86 23.35 20.72 -11 15 C-11.77 14.87 -12.54 14.73 -13.33 14.6 C-45.31 9.3 -80.15 12.8 -111 22 C-111.83 22.25 -112.67 22.49 -113.53 22.75 C-146.03 32.51 -175.62 48.94 -200.64 71.87 C-202.68 73.71 -204.76 75.45 -206.88 77.19 C-215.62 84.82 -222.84 94.43 -229.48 103.89 C-232.37 107.9 -232.37 107.9 -235.06 108.34 C-241.44 108.44 -241.44 108.44 -244.06 106.38 C-245.28 103.29 -245.34 101.32 -245 98 C-243.6 95.54 -242.26 93.47 -240.56 91.25 C-240.11 90.64 -239.66 90.03 -239.19 89.4 C-235.73 84.78 -232 80.44 -228.06 76.21 C-226.24 74.26 -224.52 72.25 -222.81 70.19 C-204.78 49.63 -180.67 33.41 -156.01 21.94 C-154.65 21.31 -153.31 20.67 -151.96 20.02 C-131.65 10.23 -110.11 4.12 -88 0 C-87.2 -0.16 -86.4 -0.33 -85.57 -0.5 C-58.78 -5.88 -26.72 -5.67 0 0 Z " fill="#020201" transform="translate(277,3)"/>
<path d="M0 0 C5.02 2.85 7.61 5.79 9.78 11.12 C10.57 17.39 9.48 21.93 5.78 27.12 C2.89 30.44 -0.1 33.64 -3.13 36.82 C-6.64 40.52 -9.81 44.44 -12.98 48.43 C-15.44 51.38 -18.1 54.07 -20.79 56.81 C-24.81 61.08 -24.81 61.08 -25.91 66.62 C-25.31 70.08 -25.31 70.08 -24.22 73.12 C-26.25 77.09 -28.8 80.29 -32.22 83.12 C-34.86 83.39 -34.86 83.39 -37.6 83.06 C-41.45 82.69 -42.72 82.73 -45.83 85.15 C-48.45 88.05 -50.85 91.02 -53.22 94.12 C-54.68 95.92 -56.13 97.71 -57.6 99.5 C-58.33 100.4 -59.06 101.31 -59.81 102.24 C-63 106.05 -66.38 109.66 -69.78 113.29 C-73.7 117.5 -77.34 121.89 -80.95 126.38 C-83.44 129.39 -86.06 132.26 -88.72 135.12 C-92.2 138.86 -95.52 142.65 -98.72 146.62 C-102.36 151.14 -106.19 155.4 -110.14 159.64 C-113.13 162.88 -115.96 166.19 -118.72 169.62 C-122.36 174.14 -126.19 178.4 -130.14 182.65 C-133.11 185.86 -135.92 189.15 -138.66 192.56 C-142.57 197.42 -146.71 202 -150.97 206.53 C-154.19 209.97 -157.24 213.49 -160.22 217.12 C-164.14 216.57 -165.96 214.78 -168.73 212.04 C-169.62 211.17 -170.5 210.3 -171.41 209.41 C-172.37 208.45 -173.32 207.5 -174.27 206.54 C-175.26 205.57 -176.24 204.59 -177.22 203.62 C-179.28 201.57 -181.33 199.52 -183.38 197.47 C-186.01 194.84 -188.65 192.22 -191.3 189.61 C-193.34 187.6 -195.36 185.58 -197.38 183.56 C-198.35 182.59 -199.32 181.63 -200.3 180.67 C-201.67 179.32 -203.01 177.96 -204.36 176.6 C-205.13 175.83 -205.9 175.06 -206.7 174.27 C-208.22 172.12 -208.22 172.12 -208.11 170 C-206.7 167.01 -204.29 165.08 -201.85 162.94 C-201.04 162.21 -201.04 162.21 -200.21 161.47 C-195.92 157.66 -191.48 154.04 -187 150.44 C-183.98 147.93 -181.1 145.3 -178.22 142.62 C-173.64 138.36 -168.89 134.37 -164 130.44 C-160.98 127.93 -158.1 125.3 -155.22 122.62 C-150.64 118.36 -145.89 114.37 -141 110.44 C-137.98 107.93 -135.1 105.3 -132.22 102.62 C-127.64 98.36 -122.89 94.37 -118 90.44 C-114.45 87.48 -111.08 84.36 -107.7 81.21 C-104.49 78.24 -101.2 75.43 -97.79 72.69 C-93.6 69.32 -89.64 65.79 -85.72 62.12 C-80.96 57.67 -76.06 53.49 -70.97 49.4 C-67.96 46.91 -65.08 44.29 -62.22 41.62 C-57.64 37.36 -52.89 33.37 -48 29.44 C-44.98 26.93 -42.1 24.3 -39.22 21.62 C-34.53 17.26 -29.69 13.15 -24.7 9.13 C-22.52 7.36 -20.39 5.55 -18.29 3.69 C-12.68 -1 -7.07 -2.78 0 0 Z " fill="#8B7F89" transform="translate(487.22265625,62.875)"/>
<path d="M0 0 C3.08 2.33 4.82 3.73 5.37 7.63 C4.88 12.14 3.19 15.66 1.31 19.75 C-2.75 28.97 -5.64 38.22 -8 48 C-8.33 49.34 -8.33 49.34 -8.68 50.71 C-9.22 53.14 -9.63 55.55 -10 58 C-10.18 59.14 -10.37 60.27 -10.56 61.44 C-13.91 84.58 -13.06 109.05 -9 132 C-8.85 132.9 -8.71 133.8 -8.56 134.72 C-4.3 160.74 4.84 186.83 15.94 210.71 C17.03 213.06 18.08 215.42 19.13 217.78 C32.2 246.71 51 273.18 73 296 C73.53 296.56 74.07 297.11 74.62 297.69 C81.68 305 88.92 311.81 97 318 C97.66 318.51 98.31 319.02 98.99 319.55 C152.9 361.37 223.35 381.41 291.29 372.97 C298.19 371.98 298.19 371.98 305 370.48 C308.39 369.67 311.59 369.28 315 370 C318.1 372.22 319.76 374.87 320.56 378.62 C319.78 381.94 318.76 383 316 385 C284.45 393.97 245.02 393.21 213 387 C212.08 386.83 211.15 386.66 210.2 386.48 C165 377.92 123.05 359.68 87 331 C86.16 330.34 86.16 330.34 85.31 329.66 C76.93 322.96 69.29 315.49 61.69 307.94 C60.31 306.57 60.31 306.57 58.9 305.18 C42.35 288.55 28.74 269.25 17 249 C16.58 248.29 16.17 247.58 15.74 246.85 C-5.22 211.09 -19.64 170.95 -26 130 C-26.19 128.82 -26.37 127.64 -26.56 126.43 C-28.16 115.14 -28.4 103.95 -28.38 92.56 C-28.37 91.59 -28.37 90.62 -28.37 89.63 C-28.33 74.4 -27.53 59.87 -24 45 C-23.79 44.06 -23.57 43.12 -23.35 42.16 C-15.5 8.5 -15.5 8.5 -7 1 C-4.36 -0.32 -2.94 -0.41 0 0 Z " fill="#010101" transform="translate(28,122)"/>
<path d="M0 0 C8.73 7.38 14.23 16.92 15.23 28.41 C15.54 40.54 11.48 50.74 3.18 59.62 C-6.16 68.36 -15.82 71.09 -28.37 70.96 C-39.46 70.12 -47.73 64.35 -55.26 56.5 C-62.63 47.48 -64.91 35.98 -64.01 24.68 C-61.46 13.55 -55.22 4.36 -46.01 -2.32 C-31.45 -11.38 -13.84 -10.16 0 0 Z " fill="#030404" transform="translate(145.0078125,266.31640625)"/>
<path d="M0 0 C8.77 6.44 15.05 15.41 17.12 26.25 C18.24 37.54 15.84 47.37 9.25 56.69 C2.64 64.7 -5.58 70.26 -15.88 72.25 C-28.42 73.27 -38.14 71.27 -47.88 63.1 C-57 54.65 -61.8 45.13 -62.31 32.56 C-62.15 22.15 -58.06 12.79 -50.88 5.25 C-36.09 -8.36 -17.46 -10.87 0 0 Z " fill="#040302" transform="translate(189.875,80.75)"/>
<path d="M0 0 C9.88 5.35 16.28 13.45 20 24 C22.86 36.14 20.84 46.92 14.46 57.57 C8.72 65.59 0.54 71.43 -9 74 C-12.14 74.42 -15.21 74.48 -18.38 74.44 C-19.21 74.43 -20.05 74.42 -20.91 74.41 C-31.54 74.12 -39.34 70.4 -47 63 C-54.7 54.36 -58.9 43.38 -58.38 31.75 C-56.75 19.95 -51.15 10.82 -41.96 3.35 C-29 -5.54 -14.22 -6.73 0 0 Z " fill="#040302" transform="translate(117,159)"/>
<path d="M0 0 C10.46 5.8 17.44 14.04 21.39 25.32 C24.01 36.16 22.65 46.88 17.11 56.57 C10.62 65.82 2.1 72.61 -8.98 75.07 C-22.85 76.03 -32.69 74.46 -43.61 65.32 C-50.88 58.63 -56.02 49.42 -56.85 39.48 C-57.13 27.07 -53.53 16.78 -45.02 7.61 C-33.16 -3.36 -14.87 -6.5 0 0 Z " fill="#020303" transform="translate(299.609375,376.67578125)"/>
<path d="M0 0 C10.09 6.38 17.5 15.02 20.64 26.67 C21.46 36.25 21.52 45.13 16.64 53.67 C16.22 54.45 15.8 55.23 15.36 56.03 C9.36 66 0.62 70.92 -10.27 74.26 C-21.09 76.4 -31.42 74.5 -40.54 68.48 C-49.42 61.8 -56.01 53.82 -57.67 42.5 C-58.99 29.29 -56.59 19.57 -48.24 8.99 C-36.17 -4.09 -16.12 -8.02 0 0 Z " fill="#040402" transform="translate(294.35546875,68.328125)"/>
<path d="M0 0 C10.13 6.32 17.54 15.04 20.68 26.67 C21.72 38.85 20.84 49.24 13.49 59.42 C5.67 68.68 -3.11 73.89 -15.29 75.05 C-26.76 75.56 -35.34 73.04 -44.22 65.64 C-52.83 57.57 -57.21 48.61 -57.84 36.73 C-58.06 25.9 -55.11 17.61 -48.13 9.3 C-35.63 -3.66 -16.51 -8.14 0 0 Z " fill="#020302" transform="translate(401.3203125,345.328125)"/>
<path d="M0 0 C4.13 2.84 7.55 6.15 11.01 9.76 C12.62 11.44 14.28 13.06 15.96 14.68 C24.7 23.4 24.7 23.4 24.82 28.96 C24.51 31.11 24.51 31.11 24 33 C23.64 34.43 23.64 34.43 23.27 35.89 C22.93 36.67 22.6 37.45 22.25 38.25 C21.93 39.04 21.6 39.83 21.27 40.64 C12.95 56.14 -10.55 60.29 -26 65 C-42.71 70 -42.71 70 -46 70 C-44.73 61.95 -42.79 54.27 -40.38 46.5 C-40.02 45.37 -39.67 44.24 -39.31 43.08 C-37.09 36.07 -34.68 29.17 -31.88 22.38 C-31.43 21.27 -31.43 21.27 -30.97 20.14 C-28.03 13.34 -24.18 6.43 -17.31 3.06 C-16.57 2.68 -15.82 2.3 -15.05 1.91 C-9.96 -0.35 -5.46 -1.4 0 0 Z " fill="#BA653F" transform="translate(222,313)"/>
<path d="M0 0 C4.14 3.93 5.82 5.9 6.31 11.69 C6.05 21.31 -0.68 27.16 -6.91 33.7 C-10.41 37.39 -13.59 41.32 -16.75 45.31 C-19.22 48.26 -21.87 50.95 -24.56 53.69 C-28.59 57.96 -28.59 57.96 -29.69 63.5 C-29.09 66.95 -29.09 66.95 -28 70 C-30.02 73.97 -32.57 77.16 -36 80 C-38.63 80.27 -38.63 80.27 -41.38 79.94 C-45.23 79.56 -46.49 79.61 -49.61 82.02 C-52.22 84.92 -54.63 87.9 -57 91 C-58.45 92.8 -59.91 94.59 -61.38 96.38 C-62.1 97.28 -62.83 98.18 -63.59 99.12 C-66.78 102.93 -70.16 106.54 -73.56 110.16 C-77.48 114.37 -81.12 118.76 -84.72 123.25 C-87.22 126.26 -89.84 129.14 -92.5 132 C-95.97 135.73 -99.3 139.52 -102.5 143.5 C-106.13 148.02 -109.97 152.28 -113.91 156.52 C-116.9 159.75 -119.74 163.07 -122.5 166.5 C-126.14 171.02 -129.97 175.28 -133.92 179.52 C-136.89 182.73 -139.7 186.03 -142.44 189.44 C-146.34 194.29 -150.49 198.87 -154.75 203.41 C-157.97 206.84 -161.02 210.36 -164 214 C-166.37 213.82 -167.68 213.33 -169.32 211.6 C-170.55 210.07 -171.77 208.53 -173 207 C-171.86 205.78 -171.86 205.78 -170.69 204.54 C-165.81 199.31 -160.98 194.09 -156.5 188.5 C-153.16 184.33 -149.65 180.4 -146 176.5 C-141.54 171.74 -137.36 166.84 -133.28 161.75 C-130.78 158.74 -128.16 155.86 -125.5 153 C-122.03 149.27 -118.7 145.48 -115.5 141.5 C-111.87 136.98 -108.03 132.72 -104.09 128.48 C-101.1 125.25 -98.26 121.93 -95.5 118.5 C-91.86 113.98 -88.03 109.72 -84.08 105.48 C-81.11 102.27 -78.3 98.97 -75.56 95.56 C-71.72 90.78 -67.63 86.31 -63.44 81.84 C-59.52 77.63 -55.88 73.24 -52.28 68.75 C-49.78 65.74 -47.16 62.86 -44.5 60 C-41.03 56.27 -37.7 52.48 -34.5 48.5 C-31.3 44.52 -27.97 40.73 -24.5 37 C-20.14 32.31 -16.02 27.47 -12 22.47 C-10.26 20.32 -8.47 18.25 -6.62 16.19 C-2.33 11.18 -0.66 6.57 0 0 Z " fill="#796F77" transform="translate(491,66)"/>
<path d="M0 0 C1.48 3.94 0.57 7.49 -0.21 11.48 C-0.49 12.99 -0.77 14.5 -1.04 16.01 C-1.49 18.36 -1.93 20.71 -2.38 23.06 C-5.39 38.82 -8.12 54.72 0.89 69 C9.05 80.33 19.67 89.5 30.15 98.62 C46.29 112.7 61.33 129.67 63 152 C64.66 177.19 56.26 202.24 40.15 221.69 C38.22 223.77 36.33 225.4 34 227 C35.36 223.37 37.02 219.97 38.82 216.53 C42.8 208.88 45.85 201.38 48 193 C48.25 192.13 48.5 191.27 48.76 190.37 C50.78 183.03 51.51 176.23 51.44 168.62 C51.43 167.53 51.42 166.44 51.41 165.31 C51.01 146.6 43.29 130.89 31 117 C30.27 116.15 29.53 115.29 28.78 114.41 C24.85 109.93 20.83 105.81 16.29 101.96 C11.61 97.95 7.12 93.74 2.64 89.53 C1.58 88.54 0.52 87.56 -0.55 86.59 C-7.8 79.99 -16.25 71.82 -17.24 61.52 C-17.38 54.89 -16.4 48.67 -15.06 42.19 C-13.42 33.76 -12.29 25.59 -12 17 C-13.32 17.99 -14.64 18.98 -16 20 C-14.36 15.97 -11.51 13.11 -8.56 10 C-5.53 6.79 -2.56 3.61 0 0 Z " fill="#FBD9A5" transform="translate(400,218)"/>
<path d="M0 0 C5.68 3.81 9.34 9.11 10.75 15.84 C11.38 23.6 9.94 30.43 5.06 36.66 C-0.05 42.14 -6.96 44.86 -14.38 45.22 C-20.83 45.12 -26.31 42.45 -31.11 38.2 C-36.64 32.14 -38.92 25.87 -38.66 17.69 C-37.62 10.44 -33.93 4.45 -28.13 0.03 C-18.41 -6.1 -9.94 -5.37 0 0 Z " fill="#FC9800" transform="translate(181.25390625,93.15625)"/>
<path d="M0 0 C6.34 3.67 10.17 9.12 12.5 16 C13.67 24 12.11 30.38 7.5 37 C3.04 42.03 -2.28 45.41 -9.04 46.35 C-16.99 46.78 -23.36 44.68 -29.35 39.36 C-34.43 33.82 -37.08 27.89 -36.79 20.33 C-35.82 12.47 -32.92 6.56 -26.67 1.52 C-18.68 -3.78 -8.67 -3.84 0 0 Z " fill="#00D7FB" transform="translate(132.5,276)"/>
<path d="M0 0 C6.34 3.67 10.17 9.12 12.5 16 C13.67 24.01 12.1 30.37 7.5 37 C2.78 42.43 -2.81 45.31 -9.88 46.35 C-17.46 46.8 -23.58 44.32 -29.36 39.43 C-34.21 34.29 -36.51 28.01 -36.94 21 C-36.67 14.97 -34.01 9.85 -30.25 5.25 C-29.34 4.51 -28.44 3.76 -27.5 3 C-26.97 2.53 -26.44 2.07 -25.89 1.59 C-18.45 -4.11 -8.33 -3.7 0 0 Z " fill="#00DEA5" transform="translate(294.5,391)"/>
<path d="M0 0 C6.51 3.72 10.84 8.66 13.15 15.84 C15.15 24.69 12.56 31.16 7.94 38.69 C2.2 44.27 -2.87 46.28 -10.94 46.56 C-19.57 46.24 -23.94 43.74 -29.69 37.56 C-33.67 32.54 -35.97 27.58 -35.65 21.04 C-34.6 13.05 -31.39 7.31 -25.38 1.94 C-17.93 -3.76 -8.35 -3.8 0 0 Z " fill="#FC6369" transform="translate(109.375,172.0625)"/>
<path d="M0 0 C5.47 2.83 9.56 7.35 12.29 12.84 C14.26 19.1 14.27 26.23 12.1 32.43 C8.55 38.9 3.27 43.84 -3.85 46.14 C-12.64 47.71 -19.84 46.3 -27.12 41.25 C-32.79 35.58 -34.98 29.75 -35.25 21.81 C-35.17 15.57 -33.88 11.32 -29.88 6.5 C-21.32 -1.46 -11.39 -4.46 0 0 Z " fill="#009C64" transform="translate(393.875,358.5)"/>
<path d="M0 0 C0.67 -0 1.35 -0.01 2.04 -0.01 C4.21 -0.02 6.38 -0.02 8.54 -0.02 C9.29 -0.02 10.03 -0.02 10.79 -0.02 C21.9 0.01 32.77 0.29 43.73 2.17 C45.12 2.39 45.12 2.39 46.54 2.62 C83.33 8.75 117.88 23.99 144.73 50.17 C145.37 50.75 146.01 51.32 146.67 51.92 C155.11 59.74 161.3 69.93 166.73 79.98 C167.1 80.66 167.48 81.34 167.86 82.04 C170.42 86.95 171.77 91.73 172.73 97.17 C171.09 98.67 169.44 100.17 167.79 101.67 C166.88 102.5 165.96 103.34 165.02 104.2 C162.73 106.17 162.73 106.17 161.73 106.17 C161.55 105.43 161.36 104.69 161.17 103.92 C152.07 70.88 126.82 46.02 97.79 29.42 C89.38 24.75 80.6 20.87 71.73 17.17 C70.95 16.84 70.16 16.5 69.35 16.16 C63.27 13.64 57.15 11.73 50.79 10.04 C49.88 9.79 48.97 9.54 48.03 9.28 C38.23 6.64 28.46 4.97 18.36 4.11 C16.96 3.98 16.96 3.98 15.54 3.86 C5.62 3.01 -4.32 2.55 -14.27 2.17 C-14.27 1.84 -14.27 1.51 -14.27 1.17 C-9.47 0.4 -4.86 0.03 0 0 Z " fill="#FAD8A4" transform="translate(222.26953125,14.83203125)"/>
<path d="M0 0 C5.23 3.86 8.91 9.22 10.2 15.62 C10.97 22.69 10.22 28.64 6.2 34.62 C0.16 41.27 -5.05 44.54 -14.05 45.06 C-21.01 44.9 -26.79 42.72 -31.69 37.68 C-37.47 30.29 -38.53 23.89 -37.8 14.62 C-36.77 8.03 -33.12 4.39 -28.05 0.25 C-19.82 -5.72 -8.59 -4.87 0 0 Z " fill="#FDDA00" transform="translate(289.8046875,83.37890625)"/>
<path d="M0 0 C3.3 1.44 5.49 3.24 8.03 5.78 C8.81 6.55 9.6 7.32 10.4 8.12 C11.23 8.96 12.06 9.79 12.92 10.66 C13.78 11.51 14.64 12.37 15.53 13.26 C17.34 15.07 19.15 16.89 20.96 18.7 C23.75 21.5 26.54 24.28 29.33 27.06 C31.09 28.82 32.85 30.58 34.61 32.34 C35.87 33.6 35.87 33.6 37.16 34.88 C37.92 35.65 38.69 36.43 39.48 37.22 C40.16 37.91 40.84 38.59 41.55 39.29 C43 41 43 41 43 43 C37.95 45.19 32.9 47.37 27.84 49.52 C26.12 50.25 24.4 51 22.68 51.74 C20.22 52.81 17.74 53.87 15.27 54.91 C14.5 55.25 13.73 55.59 12.94 55.94 C7.63 58.16 7.63 58.16 4.76 57.44 C0.85 54.24 -2.72 50.74 -6.31 47.19 C-7.16 46.38 -8.01 45.57 -8.88 44.74 C-10.08 43.56 -10.08 43.56 -11.3 42.36 C-12.4 41.28 -12.4 41.28 -13.52 40.19 C-15 38 -15 38 -14.91 35.68 C-13.77 32.33 -12.48 29.06 -11.09 25.8 C-10.81 25.12 -10.52 24.45 -10.23 23.75 C-9.32 21.6 -8.41 19.46 -7.5 17.31 C-6.89 15.86 -6.27 14.41 -5.66 12.95 C-1.23 2.46 -1.23 2.46 0 0 Z " fill="#E4E0E4" transform="translate(269,247)"/>
<path d="M0 0 C2.36 1.59 2.36 1.59 4.64 3.84 C5.51 4.67 6.37 5.51 7.26 6.38 C8.17 7.3 9.09 8.21 10.03 9.16 C10.98 10.11 11.94 11.06 12.9 12 C14.9 13.99 16.9 15.98 18.88 17.99 C21.42 20.55 23.99 23.08 26.57 25.61 C28.56 27.55 30.52 29.52 32.48 31.49 C33.88 32.89 35.3 34.27 36.71 35.65 C42.78 41.86 42.78 41.86 43.41 45.11 C43.06 48.19 42.18 49.82 40 52 C37.38 52.56 37.38 52.56 34 52 C32.21 50.7 32.21 50.7 30.3 48.97 C29.25 48.01 29.25 48.01 28.17 47.04 C24.65 43.74 21.22 40.36 17.82 36.95 C16.7 35.84 16.7 35.84 15.57 34.71 C14.02 33.16 12.47 31.61 10.93 30.06 C8.55 27.67 6.17 25.3 3.78 22.92 C2.27 21.41 0.76 19.9 -0.75 18.39 C-1.46 17.68 -2.17 16.96 -2.91 16.23 C-3.56 15.57 -4.22 14.91 -4.89 14.24 C-5.47 13.66 -6.05 13.08 -6.64 12.48 C-8.67 10.27 -8.99 9.1 -9.25 6.06 C-9 3 -9 3 -7.88 1.12 C-5.12 -0.53 -3.17 -0.31 0 0 Z " fill="#F8D600" transform="translate(232,284)"/>
<path d="M0 0 C5.63 3.64 5.63 3.64 6.54 6.98 C6.86 15.24 3.53 22.98 -2 29 C-17.05 39.62 -45.38 51 -64 51 C-63.34 47.37 -62.68 43.74 -62 40 C-61.67 40.66 -61.34 41.32 -61 42 C-26.58 32.59 -26.58 32.59 -2 9 C-1.03 5.97 -0.5 3.15 0 0 Z " fill="#9D5437" transform="translate(240,332)"/>
<path d="M0 0 C8.02 2.07 14.01 5.28 18.44 12.5 C21.36 19.16 21.38 27.11 18.96 33.91 C15.71 39.92 11.25 44.18 5 47 C3.01 47.4 1.01 47.74 -1 48 C-0.28 46.88 -0.28 46.88 0.46 45.73 C1.09 44.75 1.72 43.76 2.38 42.75 C3 41.78 3.63 40.8 4.27 39.8 C8.66 32.69 9.9 25.51 8.53 17.14 C7.13 12.13 5.11 8.21 2 4 C1.31 2.68 0.64 1.34 0 0 Z " fill="#008652" transform="translate(387,357)"/>
<path d="M0 0 C8.86 3 13.57 6.69 18 15 C20.17 21.52 19.82 28.08 16.94 34.31 C12.69 41.84 7.22 45.63 -1 48 C-1.66 47.67 -2.32 47.34 -3 47 C-2.53 46.52 -2.06 46.03 -1.57 45.53 C5.92 37.47 7.55 31.45 7.29 20.41 C6.68 13.22 4.68 8.48 0 3 C0 2.01 0 1.02 0 0 Z " fill="#00C485" transform="translate(288,389)"/>
<path d="M0 0 C8.25 -0.83 14.13 1.38 21 6 C26.23 11.08 28.72 16.56 29.31 23.81 C29.08 31.04 26.69 37.19 21.75 42.49 C18.87 44.98 15.67 46.93 12 48 C11.01 47.67 10.02 47.34 9 47 C9.41 46.41 9.82 45.82 10.24 45.21 C10.78 44.42 11.32 43.63 11.88 42.81 C12.41 42.04 12.94 41.26 13.49 40.46 C17.91 33.26 18.22 25.23 17 17 C15.14 11.56 12.65 5.63 8 2 C5.96 1.43 5.96 1.43 3.81 1.31 C1.93 1.16 1.93 1.16 0 1 C0 0.67 0 0.34 0 0 Z " fill="#E78300" transform="translate(163,89)"/>
<path d="M0 0 C5.63 0.42 9.74 2.4 14 6 C19.39 12.53 21.41 17.94 21.27 26.35 C20.47 34.3 16.4 39.39 10.39 44.4 C6.96 46.7 4.07 47.41 0 48 C0.39 47.55 0.77 47.1 1.17 46.64 C7.17 39.22 10.8 31.08 10.31 21.4 C9.31 13.73 6.37 8.65 1.43 2.75 C0 1 0 1 0 0 Z " fill="#FBBC00" transform="translate(279,80)"/>
<path d="M0 0 C7.02 1.71 12.32 4.37 17 10 C20.47 15.91 22.19 22.18 21 29 C18.21 37.7 14.02 42.76 6.02 47.08 C4 48 4 48 2 48 C3.34 44.52 4.86 41.2 6.56 37.88 C10.26 30.66 11.58 23.4 9.25 15.42 C7.31 10.96 4.83 6.96 2 3 C1.34 2.01 0.68 1.02 0 0 Z " fill="#F93D4A" transform="translate(102,170)"/>
<path d="M0 0 C1.17 0.95 2.34 1.91 3.5 2.88 C4.47 3.68 4.47 3.68 5.47 4.49 C5.97 4.99 6.48 5.49 7 6 C7 6.66 7 7.32 7 8 C1.95 10.19 -3.1 12.37 -8.16 14.52 C-9.88 15.25 -11.6 16 -13.32 16.74 C-15.78 17.81 -18.26 18.87 -20.73 19.91 C-21.5 20.25 -22.27 20.59 -23.06 20.94 C-28.39 23.16 -28.39 23.16 -31.38 22.36 C-33.61 20.49 -35.28 18.34 -37 16 C-24.68 10.63 -12.36 5.27 0 0 Z " fill="#D5CED4" transform="translate(305,282)"/>
<path d="M0 0 C4.27 2.88 4.27 2.88 6 5 C6 8.69 6 8.69 5 12 C3 14 3 14 0.25 14.44 C-4.2 13.84 -5.78 12.06 -9 9 C-8.26 8.44 -7.51 7.89 -6.75 7.31 C-4.08 5.07 -2.08 2.78 0 0 Z " fill="#F6B800" transform="translate(269,322)"/>
</svg>
